<?xml version="1.0" encoding="UTF-8"?>
<svg id="Layer_2" data-name="Layer 2" xmlns="http://www.w3.org/2000/svg" viewBox="0 0 100 100">
  <defs>
    <style>
      .cls-1 {
        fill: #0d61ff;
      }

      .cls-1, .cls-2 {
        stroke-width: 0px;
      }

      .cls-2 {
        fill: #fff;
      }
    </style>
  </defs>
  <g id="Layer_1-2" data-name="Layer 1">
    <g>
      <circle class="cls-1" cx="50" cy="50" r="50"/>
      <path class="cls-2" d="m75.04,66.64c-.73-12.86-16.9-18.7-18.45-19.3-.06-.03-.06-.09-.03-.16l16.68-16.74v-1.8c0-.28-.25-.54-.54-.54h-30.73v-10.08h0v-3.03l-11.34,2.37v1.71h.63s2.78,0,2.78,2.78v6.22h-8.78c-.16,0-.32.16-.32.32v3.95h9.13v21.45c0,6.73,4.33,11.4,11.91,10.77,1.61-.13,3.1-.76,4.36-1.58.57-.38.92-.98.92-1.67v-2.12c-2.46,1.64-4.55,1.55-4.55,1.55-4.8,0-4.71-6.1-4.71-6.1v-22.3h22.11l-15.92,16.05c-.03,2.12-.06,3.76-.06,3.79,0,.06.03.09.09.09,14.59,2.46,18.54,11.91,18.54,14.66,0,0,1.58,13.36-11.78,14.28,0,0-8.75.38-10.3-3.13-.06-.13,0-.25.13-.32,1.45-.66,2.43-1.96,2.43-3.7,0-2.59-1.58-4.71-4.9-4.71-2.68,0-4.9,2.12-4.9,4.71,0,0-1.26,11.24,17.5,10.93,21.41-.38,20.09-18.35,20.09-18.35Z"/>
    </g>
  </g>
</svg>